<svg width="1200" height="1500" viewBox="0 0 1200 1500" fill="none" xmlns="http://www.w3.org/2000/svg">
  <defs>
    <linearGradient id="bg" x1="250" y1="120" x2="930" y2="1120" gradientUnits="userSpaceOnUse">
      <stop offset="0" stop-color="#173E82"/>
      <stop offset="0.45" stop-color="#0B2358"/>
      <stop offset="1" stop-color="#07152E"/>
    </linearGradient>
    <linearGradient id="shieldEdge" x1="240" y1="120" x2="950" y2="1100" gradientUnits="userSpaceOnUse">
      <stop offset="0" stop-color="#0B1324"/>
      <stop offset="0.5" stop-color="#344154"/>
      <stop offset="1" stop-color="#020617"/>
    </linearGradient>
    <linearGradient id="gold" x1="0" y1="0" x2="1" y2="1">
      <stop offset="0" stop-color="#FFF1B0"/>
      <stop offset="0.18" stop-color="#F7D85D"/>
      <stop offset="0.55" stop-color="#D89A0B"/>
      <stop offset="1" stop-color="#7C5100"/>
    </linearGradient>
    <linearGradient id="silver" x1="0" y1="0" x2="1" y2="1">
      <stop offset="0" stop-color="#FFFFFF"/>
      <stop offset="1" stop-color="#D8E0EA"/>
    </linearGradient>
    <linearGradient id="circuit" x1="0" y1="0" x2="1" y2="1">
      <stop offset="0" stop-color="#7DEBFF"/>
      <stop offset="1" stop-color="#2B63D9"/>
    </linearGradient>
    <filter id="softGlow" x="-30%" y="-30%" width="160%" height="160%">
      <feGaussianBlur stdDeviation="7" result="blur"/>
      <feMerge><feMergeNode in="blur"/><feMergeNode in="SourceGraphic"/></feMerge>
    </filter>
    <filter id="goldGlow" x="-30%" y="-30%" width="160%" height="160%">
      <feGaussianBlur stdDeviation="14" result="blur"/>
      <feColorMatrix in="blur" type="matrix"
        values="1 0 0 0 0.93
                0 1 0 0 0.76
                0 0 1 0 0.18
                0 0 0 0.42 0"/>
      <feMerge><feMergeNode/><feMergeNode in="SourceGraphic"/></feMerge>
    </filter>
    <clipPath id="shieldClip">
      <path d="M260 120H940C978 120 1010 152 1010 190V742C1010 910 893 1034 600 1188C307 1034 190 910 190 742V190C190 152 222 120 260 120Z"/>
    </clipPath>
  </defs>
  <path d="M260 120H940C978 120 1010 152 1010 190V742C1010 910 893 1034 600 1188C307 1034 190 910 190 742V190C190 152 222 120 260 120Z" fill="#000" opacity="0.12" transform="translate(10 18)"/>
  <path d="M260 120H940C978 120 1010 152 1010 190V742C1010 910 893 1034 600 1188C307 1034 190 910 190 742V190C190 152 222 120 260 120Z" fill="url(#shieldEdge)"/>
  <path d="M280 145H920C951 145 977 171 977 202V731C977 880 872 991 600 1135C328 991 223 880 223 731V202C223 171 249 145 280 145Z" fill="url(#bg)"/>
  <path d="M300 170H900C927 170 950 193 950 220V720C950 851 858 949 600 1087C342 949 250 851 250 720V220C250 193 273 170 300 170Z" fill="none" stroke="#8FD3FF" stroke-opacity="0.42" stroke-width="3"/>
  <path d="M308 180H892C915 180 934 199 934 222V717C934 838 849 929 600 1061C351 929 266 838 266 717V222C266 199 285 180 308 180Z" fill="none" stroke="#09111F" stroke-opacity="0.72" stroke-width="8"/>
  <g clip-path="url(#shieldClip)">
    <g stroke="url(#circuit)" stroke-width="3" stroke-linecap="round" stroke-linejoin="round" opacity="0.78">
      <path d="M334 260V352L362 380V486"/>
      <path d="M392 235V312"/>
      <path d="M362 486V560L334 588V696"/>
      <path d="M420 410V520L460 560V760"/>
      <path d="M334 696H410"/>
      <path d="M460 760H528"/>
      <path d="M866 260V352L838 380V486"/>
      <path d="M808 235V312"/>
      <path d="M838 486V560L866 588V696"/>
      <path d="M780 410V520L740 560V760"/>
      <path d="M866 696H790"/>
      <path d="M740 760H672"/>
    </g>
    <g fill="#C4F4FF" filter="url(#softGlow)" opacity="0.9">
      <circle cx="362" cy="380" r="4.5"/>
      <circle cx="410" cy="696" r="4.5"/>
      <circle cx="460" cy="560" r="4.5"/>
      <circle cx="528" cy="760" r="4.5"/>
      <circle cx="838" cy="380" r="4.5"/>
      <circle cx="790" cy="696" r="4.5"/>
      <circle cx="740" cy="560" r="4.5"/>
      <circle cx="672" cy="760" r="4.5"/>
    </g>
  </g>
  <g filter="url(#goldGlow)">
    <path d="M536 250H686V528H760V595H686V724H598V595H438V500L536 250ZM526 528H598V390L526 528Z" fill="url(#gold)" stroke="#F5D766" stroke-width="3.5"/>
  </g>
  <g fill="url(#silver)" transform="translate(372 748)">
    <path d="M0 44C0 18 18 0 46 0H108V26H56C40 26 31 35 31 49V97C31 112 40 121 56 121H108V147H46C18 147 0 129 0 102V44Z"/>
    <rect x="140" y="0" width="27" height="147" rx="2"/>
    <path d="M190 0H312V26H265V147H235V26H190V0Z"/>
    <path d="M340 0H454V26H370V58H442V84H370V121H454V147H340V0Z"/>
  </g>
</svg>
